<svg width="258" height="332" viewBox="0 0 258 332" fill="none" xmlns="http://www.w3.org/2000/svg">
<path d="M22.7997 164.043C4.65745 166.578 6.60612 206.998 16.9051 227.755C26.697 244.883 54.8909 236.457 51.8489 214.686C48.2998 189.287 33.685 162.522 22.7997 164.043Z" fill="#FCB2BC"/>
<path d="M42.4818 232.429C51.2911 227.822 54.6979 216.946 50.0912 208.137C45.4845 199.328 34.6086 195.921 25.7993 200.527C16.99 205.134 13.5831 216.01 18.1899 224.819C22.7966 233.629 33.6725 237.036 42.4818 232.429Z" fill="#222222"/>
<path d="M39.2379 226.226C44.6214 223.411 46.7033 216.764 43.8881 211.381C41.0729 205.997 34.4265 203.915 29.043 206.731C23.6596 209.546 21.5776 216.192 24.3928 221.576C27.2081 226.959 33.8544 229.041 39.2379 226.226Z" fill="#F4EFEA"/>
<path d="M223.356 161.186C243.99 161.186 248.117 200.936 239.863 222.618C231.61 240.686 206.849 237.072 206.849 215.39C206.849 190.095 210.976 161.186 223.356 161.186Z" fill="#FCB2BC"/>
<path d="M220.849 230.186C230.238 230.186 237.849 222.575 237.849 213.186C237.849 203.797 230.238 196.186 220.849 196.186C211.46 196.186 203.849 203.797 203.849 213.186C203.849 222.575 211.46 230.186 220.849 230.186Z" fill="#222222"/>
<path d="M220.849 224.186C226.924 224.186 231.849 219.261 231.849 213.186C231.849 207.111 226.924 202.186 220.849 202.186C214.774 202.186 209.849 207.111 209.849 213.186C209.849 219.261 214.774 224.186 220.849 224.186Z" fill="#F4EFEA"/>
<path d="M21.8489 121.186C21.8489 241.186 65.8489 331.186 126.849 331.186C206.849 331.186 234.349 229.686 234.349 109.686L21.8489 121.186Z" fill="#FCB2BC"/>
<path d="M51.8489 138.186C75.1822 130.186 96.8489 130.853 116.849 140.186" stroke="#8D5B3A" stroke-width="9" stroke-linecap="round"/>
<path d="M153.849 135.186C173.849 125.853 195.516 125.186 218.849 133.186" stroke="#8D5B3A" stroke-width="9" stroke-linecap="round"/>
<path d="M71.8489 182.186C83.9991 182.186 93.8489 175.023 93.8489 166.186C93.8489 157.35 83.9991 150.186 71.8489 150.186C59.6986 150.186 49.8489 157.35 49.8489 166.186C49.8489 175.023 59.6986 182.186 71.8489 182.186Z" fill="white"/>
<path d="M81.8489 175.186C87.924 175.186 92.8489 170.261 92.8489 164.186C92.8489 158.111 87.924 153.186 81.8489 153.186C75.7737 153.186 70.8489 158.111 70.8489 164.186C70.8489 170.261 75.7737 175.186 81.8489 175.186Z" fill="#5C4033"/>
<path d="M81.8489 170.186C85.1626 170.186 87.8489 167.5 87.8489 164.186C87.8489 160.873 85.1626 158.186 81.8489 158.186C78.5352 158.186 75.8489 160.873 75.8489 164.186C75.8489 167.5 78.5352 170.186 81.8489 170.186Z" fill="#111827"/>
<path d="M84.8489 164.186C86.5057 164.186 87.8489 162.843 87.8489 161.186C87.8489 159.529 86.5057 158.186 84.8489 158.186C83.192 158.186 81.8489 159.529 81.8489 161.186C81.8489 162.843 83.192 164.186 84.8489 164.186Z" fill="white"/>
<path d="M183.849 174.186C195.999 174.186 205.849 167.023 205.849 158.186C205.849 149.35 195.999 142.186 183.849 142.186C171.699 142.186 161.849 149.35 161.849 158.186C161.849 167.023 171.699 174.186 183.849 174.186Z" fill="white"/>
<path d="M193.849 167.186C199.924 167.186 204.849 162.261 204.849 156.186C204.849 150.111 199.924 145.186 193.849 145.186C187.774 145.186 182.849 150.111 182.849 156.186C182.849 162.261 187.774 167.186 193.849 167.186Z" fill="#5C4033"/>
<path d="M193.849 162.186C197.163 162.186 199.849 159.5 199.849 156.186C199.849 152.873 197.163 150.186 193.849 150.186C190.535 150.186 187.849 152.873 187.849 156.186C187.849 159.5 190.535 162.186 193.849 162.186Z" fill="#111827"/>
<path d="M196.849 156.186C198.506 156.186 199.849 154.843 199.849 153.186C199.849 151.529 198.506 150.186 196.849 150.186C195.192 150.186 193.849 151.529 193.849 153.186C193.849 154.843 195.192 156.186 196.849 156.186Z" fill="white"/>
<path d="M29.6101 149.067L119.43 143.374L114.293 188.79L42.437 193.345L29.6101 149.067Z" stroke="#111827" stroke-width="10" stroke-linecap="round" stroke-linejoin="round"/>
<path d="M139.39 142.108L229.21 136.414L222.077 181.957L150.221 186.512L139.39 142.108Z" stroke="#111827" stroke-width="10" stroke-linecap="round" stroke-linejoin="round"/>
<path d="M119.873 150.36C126.357 147.276 133.011 146.855 139.833 149.094" stroke="#111827" stroke-width="10" stroke-linecap="round"/>
<path d="M29.9265 154.057L18.3489 160.686Z" fill="black"/>
<path d="M29.9265 154.057L18.3489 160.686" stroke="#111827" stroke-width="9" stroke-linecap="round"/>
<path d="M123.442 203.888C128.404 215.523 136.377 214.874 139.39 202.589" stroke="#D99B82" stroke-width="8" stroke-linecap="round"/>
<path d="M88.9915 253.126C118.231 249.923 147.47 246.72 176.71 243.518C151.145 280.272 121.906 283.475 88.9915 253.126Z" fill="#3B1115"/>
<path d="M91.6069 252.902C119.484 252.001 147.129 248.973 174.54 243.818C147.828 255.352 120.183 258.38 91.6069 252.902Z" fill="white"/>
<path d="M86.7349 254.629C117.162 247.53 147.996 244.153 179.238 244.496" stroke="#CB7D6A" stroke-width="8" stroke-linecap="round"/>
<path d="M89.2146 255.164C122.064 284.922 151.304 281.72 176.933 245.556" stroke="#CB7D6A" stroke-width="8" stroke-linecap="round"/>
<path d="M137.849 295.186C140.058 295.186 141.849 293.395 141.849 291.186C141.849 288.977 140.058 287.186 137.849 287.186C135.64 287.186 133.849 288.977 133.849 291.186C133.849 293.395 135.64 295.186 137.849 295.186Z" fill="#374151"/>
<path d="M137.849 294.386C139.616 294.386 141.049 292.954 141.049 291.186C141.049 289.419 139.616 287.986 137.849 287.986C136.082 287.986 134.649 289.419 134.649 291.186C134.649 292.954 136.082 294.386 137.849 294.386Z" fill="#E5E7EB"/>
<path d="M139.049 291.186C139.712 291.186 140.249 290.649 140.249 289.986C140.249 289.323 139.712 288.786 139.049 288.786C138.386 288.786 137.849 289.323 137.849 289.986C137.849 290.649 138.386 291.186 139.049 291.186Z" fill="white"/>
<path d="M17.8489 178.186C19.5057 178.186 20.8489 176.843 20.8489 175.186C20.8489 173.529 19.5057 172.186 17.8489 172.186C16.192 172.186 14.8489 173.529 14.8489 175.186C14.8489 176.843 16.192 178.186 17.8489 178.186Z" fill="#374151"/>
<path d="M17.849 177.586C19.1745 177.586 20.249 176.512 20.249 175.186C20.249 173.861 19.1745 172.786 17.849 172.786C16.5235 172.786 15.449 173.861 15.449 175.186C15.449 176.512 16.5235 177.586 17.849 177.586Z" fill="#E5E7EB"/>
<path d="M17.9488 175.186C18.4459 175.186 18.8488 174.783 18.8488 174.286C18.8488 173.789 18.4459 173.386 17.9488 173.386C17.4518 173.386 17.0488 173.789 17.0488 174.286C17.0488 174.783 17.4518 175.186 17.9488 175.186Z" fill="white"/>
<path d="M10.1579 118.949C-1.46289 -6.58412 232.356 -20.4248 235.626 105.603L10.1579 118.949Z" fill="#EDDEC1"/>
<path d="M118.626 29.3798C124.631 28.8535 129.285 25.9928 129.022 22.9904C128.759 19.988 123.678 17.9807 117.673 18.5071C111.668 19.0334 107.013 21.8941 107.277 24.8965C107.54 27.8989 112.621 29.9062 118.626 29.3798Z" fill="#B59E7F"/>
<path d="M118.626 29.3798C121.326 60.1859 123.735 87.6697 125.853 111.831" stroke="#B59E7F" stroke-width="2" stroke-dasharray="4 3"/>
<path d="M118.626 29.3798C78.2491 54.8316 54.1173 73.9607 30.1124 112.586" stroke="#B59E7F" stroke-width="2" stroke-dasharray="4 3"/>
<path d="M118.626 29.3798C162.815 47.419 195.773 71.0076 226.132 104.867" stroke="#B59E7F" stroke-width="2" stroke-dasharray="4 3"/>
<path d="M9.79141 118.325C17.1511 110.161 224.74 77.0443 256.075 109.997C162.849 126.686 66.3489 127.186 9.79141 118.325Z" fill="#DAC9A6"/>
<path d="M10.2334 118.731C58.3491 131.686 177.349 129.186 255.675 110.043C206.656 114.333 102.278 119.987 10.2334 118.731Z" fill="#B09A7B"/>
</svg>
